<?xml version="1.0" encoding="UTF-8"?><svg id="no-outline" xmlns="http://www.w3.org/2000/svg" viewBox="0 0 500 500"><defs><style>.cls-1{fill:#ed9677;}.cls-2{fill:#f33e00;}.cls-3{fill:#fff;}.cls-4{fill:#ffc2a0;}.cls-5{fill:#ffa700;}.cls-6{fill:#bf512b;}.cls-7{fill:#afafaf;}</style></defs><path class="cls-1" d="M441.1,245v-10.9c0-7.4-4.8-13.7-11.5-15.8v42.5c6.7-2.2,11.5-8.4,11.5-15.8Z"/><path class="cls-1" d="M58.9,234.1v10.9c0,7.4,4.8,13.7,11.5,15.8v-42.5c-6.7,2.2-11.5,8.4-11.5,15.8Z"/><path class="cls-4" d="M37.2,228.7v21.7c0,19.4,14.5,35.5,33.3,38v-17.1c-12.4-2.4-21.8-13.3-21.8-26.4v-10.9c0-13.1,9.4-24,21.8-26.4v-17.1c-18.7,2.5-33.3,18.6-33.3,38Z"/><path class="cls-4" d="M462.9,250.4v-21.7c0-19.4-14.5-35.5-33.3-38v17.1c12.4,2.4,21.8,13.3,21.8,26.4v10.9c0,13.1-9.4,24-21.8,26.4v17.1c18.7-2.5,33.3-18.6,33.3-38Z"/><path class="cls-5" d="M480.9,33.2l-9.2-15.9c-1.2-2.1-3.3-2-3.9-1.9-.8,.1-2.7,.6-3.3,2.9l-2.5,9.4c-5.3,19.6-18.3,36.6-35.9,46.8l-17.7,10.2c9.9,17.1,16.4,35.6,19.4,55.2l29-16.7c31.4-18.1,42.2-58.5,24.1-89.9Z"/><path class="cls-5" d="M73.9,74.4c-17.8-10.3-30.6-26.9-35.9-46.8l-2.5-9.4c-.6-2.4-2.7-2.8-3.3-2.9-.6,0-2.7-.2-3.9,1.9l-9.2,15.9c-8.8,15.2-11.1,33-6.6,49.9,4.6,17,15.4,31.2,30.7,40l29,16.7c2.9-19.4,9.5-38.2,19.4-55.2l-17.7-10.2Z"/><path class="cls-3" d="M250,341.2h44.7c8.5,0,15.5-7,15.5-15.5v-4.8h-36.2s-22.4,0-22.4,0h-61.7v4.8c0,8.5,7,15.5,15.5,15.5h44.7Z"/><path class="cls-4" d="M405.4,212c-.1,1.4-.8,2.6-1.8,3.5-.9,.8-2.1,1.2-3.3,1.2s-.3,0-.4,0l-37.8-3.3c1.3,2.6,2,5.6,2,8.7v15.5c0,11.2-9.1,20.4-20.3,20.4h-15.5c-11.2,0-20.4-9.1-20.4-20.4v-15.5c0-6.8,3.4-12.8,8.5-16.5-13.8-7.3-23.6-21-25.6-37h-81.4c-2,16.1-11.7,29.8-25.6,37.1,5.1,3.7,8.5,9.7,8.5,16.5v15.5c0,11.2-9.1,20.4-20.4,20.4h-15.5c-11.2,0-20.3-9.1-20.3-20.4v-15.5c0-3.1,.7-6.1,2-8.7l-37.8,3.3c-.2,0-.3,0-.5,0-2.6,0-4.9-2-5.1-4.7-1.5-17.5,6.5-33.7,19.7-43.5h-33.7v59.9c0,45.3,36.8,82.1,82.1,82.1h21.7s0,0,0,0,0,0,0,0h0s0,0,0,0,0,0,0,0h23c-2-3.3-3.2-7.2-3.2-11.3v-.8c0-6.6,2.6-12.8,7.2-17.4l7.6-7.6c2.2-2.2,3.4-5.2,3.4-8.3v-80c0-2.8,2.3-5.1,5.1-5.1s5.1,2.3,5.1,5.1v80c0,5.9-2.3,11.4-6.5,15.6l-7.6,7.6c-2.7,2.7-4.2,6.3-4.2,10.1v.8c0,6.2,5.1,11.3,11.3,11.3h47.8c6.2,0,11.3-5.1,11.3-11.3v-.8c0-3.8-1.5-7.4-4.2-10.1l-7.5-7.6c-4.2-4.1-6.5-9.7-6.5-15.6v-80c0-2.8,2.3-5.1,5.1-5.1s5.1,2.3,5.1,5.1v80c0,3.1,1.2,6.1,3.4,8.3l7.6,7.6c4.6,4.6,7.2,10.8,7.2,17.4v.8c0,4.1-1.2,8-3.2,11.3h23s0,0,0,0,0,0,0,0h0s0,0,0,0,0,0,0,0h21.7c45.3,0,82.1-36.8,82.1-82.1v-59.9h-33.7c13.2,9.7,21.3,25.9,19.7,43.5Z"/><path class="cls-2" d="M337.2,320.9h-16.6s0,5.9,0,5.9c0,33.4-27.2,60.6-60.6,60.6h-20c-33.4,0-60.6-27.2-60.6-60.6v-5.9h-16.7c-35.7,0-66.7-20.4-82.1-50.1v44.5c0,45.3,17.5,87.8,49.2,119.8,31.8,32,74.2,49.6,119.3,49.6h1.5c45.2,0,87.6-17.6,119.3-49.6,31.7-31.9,49.2-74.5,49.2-119.8v-44.6c-15.4,29.7-46.4,50.1-82.1,50.1Z"/><path class="cls-7" d="M80.8,158.3h70.1l53.1-4.6c1.4-.1,2.7,.3,3.8,1.2,1,.9,1.7,2.1,1.8,3.5h81c.1-1.3,.8-2.6,1.8-3.5,1-.9,2.4-1.3,3.8-1.2l53.1,4.6h70.1c-.1-3.2-.3-6.5-.7-9.7-2.3-22.6-9.5-43.9-21.6-63.1-5.9-9.5-12.9-18.3-20.8-26.1-27.8-27.8-64.8-43.1-104.1-43.1h-44.3c-39.3,0-76.3,15.3-104.1,43.1-7.9,7.9-14.9,16.6-20.8,26.1-12.1,19.3-19.3,40.5-21.6,63.1-.3,3.2-.5,6.4-.7,9.7Z"/><path class="cls-6" d="M360.3,169.6l-11.7-1-47.8-4.2c.9,19.2,15.7,34.7,35,36.4l59.6,5.2c-.9-18.9-15.7-34.7-35-36.4Z"/><path class="cls-6" d="M199.4,164.3l-47.8,4.2s0,0,0,0l-11.8,1c-19.3,1.7-34.1,17.5-35,36.4l59.6-5.2c19.3-1.7,34.1-17.3,35-36.4Z"/><path d="M489.8,28l-9.2-15.9c-2.9-5.1-8.4-7.7-14.2-7-5.8,.8-10.3,4.8-11.8,10.4l-2.5,9.4c-4.6,17-15.9,31.8-31.1,40.5l-18,10.4c-5.7-8.6-12.3-16.6-19.5-23.8-29.7-29.7-69.3-46.1-111.3-46.1h-44.3c-42.1,0-81.6,16.4-111.3,46.1-7.3,7.2-13.8,15.2-19.6,23.8l-18-10.4c-15.4-8.9-26.5-23.3-31.1-40.5l-2.5-9.4c-1.5-5.7-6.1-9.6-11.9-10.4-5.8-.8-11.2,1.9-14.1,7l-9.2,15.9C0,45.6-2.6,66.1,2.6,85.8c5.3,19.6,17.9,36,35.5,46.2l32.8,19c-.3,4.2-.5,8.3-.5,12.5v16.9c-24.4,2.6-43.5,23.3-43.5,48.4v21.7c0,25.1,19.1,45.8,43.5,48.4v16.5c0,48,18.5,93.1,52.2,127,33.7,33.9,78.7,52.6,126.6,52.6h1.5c47.9,0,92.9-18.7,126.6-52.6,33.7-33.9,52.2-79,52.2-127v-16.5c24.4-2.6,43.5-23.3,43.5-48.4v-21.7c0-25.1-19.1-45.8-43.5-48.4v-16.9c0-4.2-.2-8.3-.5-12.5l32.8-18.9c36.3-21,48.8-67.6,27.9-103.9ZM70.4,228.5v32.3c-6.7-2.2-11.5-8.4-11.5-15.8v-10.9c0-7.4,4.8-13.7,11.5-15.8v10.2Zm0-20.8c-12.4,2.4-21.8,13.3-21.8,26.4v10.9c0,13.1,9.4,24,21.8,26.4v17.1c-18.7-2.5-33.3-18.6-33.3-38v-21.7c0-19.4,14.5-35.5,33.3-38v17.1Zm359.2,20.8v-10.2c6.7,2.2,11.5,8.4,11.5,15.8v10.9c0,7.4-4.8,13.7-11.5,15.8v-32.3Zm0,42.9c12.4-2.4,21.8-13.3,21.8-26.4v-10.9c0-13.1-9.4-24-21.8-26.4v-17.1c18.7,2.5,33.3,18.6,33.3,38v21.7c0,19.4-14.5,35.5-33.3,38v-17.1ZM103,85.5c5.9-9.5,12.9-18.3,20.8-26.1,27.8-27.8,64.7-43.1,104.1-43.1h44.3c39.3,0,76.3,15.3,104.1,43.1,7.9,7.8,14.9,16.6,20.8,26.1,12.1,19.2,19.3,40.5,21.6,63.1,.3,3.2,.5,6.4,.7,9.7h-70.1l-53.1-4.6c-1.4-.1-2.7,.3-3.8,1.2-1,.9-1.7,2.1-1.8,3.5h-81c-.1-1.3-.8-2.6-1.8-3.5-1-.9-2.4-1.3-3.8-1.2l-53.1,4.6H80.8c.1-3.2,.3-6.5,.7-9.7,2.2-22.6,9.5-43.9,21.6-63.1Zm232.6,115.3c-19.2-1.7-34.1-17.2-35-36.4l47.8,4.2,11.7,1c19.3,1.7,34.1,17.5,35,36.4l-59.6-5.2Zm19.9,20.9c0,3.2-1.3,6-3.4,8.1-2.1,2.1-4.9,3.4-8.1,3.4s-6-1.3-8.1-3.4c-2.1-2.1-3.4-5-3.4-8.1,0-6.3,5.1-11.5,11.5-11.5s6,1.3,8.1,3.4c2.1,2.1,3.4,5,3.4,8.1Zm-191.2-20.9l-59.6,5.2c.9-18.9,15.6-34.7,35-36.4l11.8-1s0,0,0,0l47.8-4.2c-.9,19.2-15.7,34.8-35,36.4Zm16.1,12.8c2.1,2.1,3.4,5,3.4,8.1s-1.3,6-3.4,8.1c-2.1,2.1-5,3.4-8.1,3.4s-6-1.3-8.1-3.4c-2.1-2.1-3.4-5-3.4-8.1,0-6.3,5.1-11.5,11.5-11.5s6,1.3,8.1,3.4ZM43.2,123.1c-15.2-8.8-26.1-23-30.7-40-4.5-17-2.2-34.7,6.6-49.9l9.2-15.9c1.2-2.1,3.3-2,3.9-1.9,.6,0,2.7,.5,3.3,2.9l2.5,9.4c5.3,19.9,18.1,36.5,35.9,46.8l17.7,10.2c-9.8,17-16.4,35.8-19.4,55.2l-29-16.7Zm376.1,192.3c0,45.3-17.5,87.8-49.2,119.8-31.8,32-74.2,49.6-119.3,49.6h-1.5c-45.2,0-87.6-17.6-119.3-49.6-31.7-31.9-49.2-74.5-49.2-119.8v-44.5c15.4,29.7,46.4,50.1,82.1,50.1h16.7v5.9c0,33.4,27.2,60.6,60.6,60.6h20c33.4,0,60.6-27.2,60.6-60.6v-5.9h16.6c35.7,0,66.7-20.4,82.1-50.1v44.6Zm-229.5,10.3v-4.8h36.3s22.4,0,22.4,0h61.7v4.8c0,8.5-6.9,15.5-15.5,15.5h-89.3c-8.5,0-15.5-7-15.5-15.5Zm229.5-97.2c0,45.3-36.8,82.1-82.1,82.1h-21.7s0,0,0,0,0,0,0,0h0s0,0,0,0,0,0,0,0h-23c2-3.3,3.2-7.2,3.2-11.3v-.8c0-6.6-2.6-12.8-7.2-17.4l-7.6-7.6c-2.2-2.2-3.4-5.1-3.4-8.3v-80c0-2.8-2.3-5.1-5.1-5.1s-5.1,2.3-5.1,5.1v80c0,5.9,2.3,11.4,6.5,15.6l7.5,7.6c2.7,2.7,4.2,6.3,4.2,10.1v.8c0,6.2-5.1,11.3-11.3,11.3h-47.8c-6.2,0-11.3-5.1-11.3-11.3v-.8c0-3.8,1.5-7.4,4.2-10.1l7.6-7.6c4.2-4.2,6.5-9.7,6.5-15.6v-80c0-2.8-2.3-5.1-5.1-5.1s-5.1,2.3-5.1,5.1v80c0,3.1-1.2,6.1-3.4,8.3l-7.6,7.6c-4.6,4.6-7.2,10.8-7.2,17.4v.8c0,4.1,1.2,8,3.2,11.3h-23s0,0,0,0,0,0,0,0h0s0,0,0,0,0,0,0,0h-21.7c-45.3,0-82.1-36.8-82.1-82.1v-59.9h33.7c-13.2,9.7-21.3,25.9-19.7,43.5,.2,2.7,2.5,4.7,5.1,4.7s.3,0,.5,0l37.8-3.3c-1.3,2.6-2,5.6-2,8.7v15.5c0,11.2,9.1,20.4,20.3,20.4h15.5c11.2,0,20.4-9.1,20.4-20.4v-15.5c0-6.8-3.4-12.8-8.5-16.5,13.8-7.3,23.6-21,25.6-37.1h81.4c2,16.1,11.7,29.8,25.6,37-5.2,3.7-8.5,9.7-8.5,16.5v15.5c0,11.2,9.1,20.4,20.4,20.4h15.5c11.2,0,20.3-9.1,20.3-20.4v-15.5c0-3.1-.7-6.1-2-8.7l37.8,3.3c.1,0,.3,0,.4,0,1.2,0,2.4-.4,3.3-1.2,1-.9,1.7-2.1,1.8-3.5,1.5-17.5-6.5-33.7-19.7-43.5h33.7v59.9Zm8.5-88.7c-2.9-19.6-9.4-38.1-19.4-55.2l17.7-10.2c17.6-10.1,30.6-27.2,35.9-46.8l2.5-9.4c.6-2.3,2.5-2.8,3.3-2.9,.6,0,2.7-.2,3.9,1.9l9.2,15.9c18.1,31.4,7.3,71.8-24.1,89.9l-29,16.7Z"/><path class="cls-3" d="M332.6,221.7c0,3.2,1.3,6,3.4,8.1,2.1,2.1,4.9,3.4,8.1,3.4s6-1.3,8.1-3.4c2.1-2.1,3.4-5,3.4-8.1s-1.3-6-3.4-8.1c-2.1-2.1-4.9-3.4-8.1-3.4-6.3,0-11.5,5.1-11.5,11.5Z"/><path class="cls-3" d="M160.9,221.7c0,3.2,1.3,6,3.4,8.1,2.1,2.1,5,3.4,8.1,3.4s6-1.3,8.1-3.4c2.1-2.1,3.4-5,3.4-8.1s-1.3-6-3.4-8.1c-2.1-2.1-5-3.4-8.1-3.4-6.3,0-11.5,5.1-11.5,11.5Z"/></svg>