<?xml version="1.0" encoding="UTF-8"?><svg id="outline" xmlns="http://www.w3.org/2000/svg" viewBox="0 0 500 500"><defs><style>.cls-1{fill:#ed9677;}.cls-2{fill:#f33e00;}.cls-3{fill:#fff;}.cls-4{fill:#ffc2a0;}.cls-5{fill:#ffa700;}.cls-6{fill:#bf512b;}.cls-7{fill:#afafaf;}</style></defs><path class="cls-3" d="M435.7,170.5l19.1-11c43.2-24.9,58-80.3,33.1-123.5l-8.4-14.6c-6-10.4-17.1-16.8-29.1-16.8s-3,0-4.4,.3c-13.5,1.8-24.5,11.4-28,24.6l-2.3,8.6c-2.8,10.3-9.7,19.4-19,24.7l-.8,.5c-2.8-3.3-5.8-6.5-8.8-9.5-31.1-31.2-72.6-48.3-116.7-48.3h-40.6c-44.1,0-85.6,17.2-116.7,48.4-3,3-6,6.2-8.8,9.5l-.8-.5c-9.4-5.4-16.2-14.2-19-24.7l-2.3-8.6h0s0,0,0,0c-3.5-13.2-14.6-22.8-28.1-24.6-1.5-.2-3-.3-4.4-.3h0c-12.1,0-22.9,6.3-29,16.8l-8.4,14.5C0,56.9-3.1,81.3,3.1,104.6c6.2,23.3,21.2,42.8,42.1,54.9l19.1,11c-8.6,3.7-16.5,9.3-22.9,16.4-10.8,12-16.8,27.5-16.8,43.6v20c0,16.1,5.9,31.6,16.8,43.6,6.5,7.2,14.4,12.8,23.2,16.5,.1,49.3,19.3,95.7,53.9,130.5,34.8,35.1,81.3,54.4,130.8,54.4h1.4c49.5,0,96-19.3,130.8-54.4,34.6-34.8,53.8-81.2,53.9-130.5,8.8-3.7,16.7-9.3,23.2-16.5,10.8-12,16.8-27.5,16.8-43.6v-20c0-16.1-5.9-31.6-16.8-43.6-6.4-7.1-14.2-12.7-22.9-16.4Zm19.1,80.6c0,23-17.5,42.1-40,44.4v15.2c0,44.1-17,85.5-47.9,116.6-31,31.1-72.2,48.3-116.2,48.3h-1.4c-44,0-85.3-17.2-116.2-48.3-30.9-31.1-47.9-72.5-47.9-116.6v-15.2c-22.4-2.4-40-21.4-40-44.4v-20c0-23,17.5-42.1,40-44.4v-15.5c0-3.8,.2-7.7,.5-11.5l-30.1-17.4c-16.2-9.3-27.7-24.4-32.5-42.4-4.8-18-2.4-36.8,7-53l8.4-14.6c2.7-4.6,7.6-7.1,13-6.4,5.3,.7,9.5,4.4,10.9,9.5l2.3,8.6c4.2,15.8,14.4,29,28.6,37.2l16.5,9.5c5.3-7.9,11.3-15.2,17.9-21.8,27.3-27.3,63.6-42.3,102.2-42.3h40.6c38.6,0,74.9,15,102.2,42.3,6.7,6.6,12.7,14,17.9,21.8l16.5-9.5c14-8.1,24.4-21.6,28.6-37.2l2.3-8.6c1.4-5.2,5.6-8.8,10.9-9.6,5.3-.7,10.3,1.7,13,6.4l8.4,14.6c19.3,33.3,7.8,76.1-25.6,95.4l-30.1,17.4c.3,3.8,.5,7.7,.5,11.5v15.5c22.4,2.4,40,21.4,40,44.4v20Z"/><path class="cls-1" d="M425.4,246.1v-10c0-6.8-4.4-12.5-10.6-14.5v39c6.1-2,10.6-7.7,10.6-14.5Z"/><path class="cls-1" d="M74.6,236.1v10c0,6.8,4.4,12.5,10.6,14.5v-39c-6.1,2-10.6,7.7-10.6,14.5Z"/><path class="cls-4" d="M54.7,231.1v20c0,17.8,13.3,32.6,30.5,34.9v-15.7c-11.4-2.2-20-12.2-20-24.2v-10c0-12,8.6-22,20-24.2v-15.7c-17.2,2.3-30.5,17.1-30.5,34.9Z"/><path class="cls-4" d="M414.9,196.2v15.7c11.4,2.2,20,12.2,20,24.2v10c0,12-8.6,22-20,24.2v15.7c17.2-2.3,30.5-17.1,30.5-34.9v-20c0-17.8-13.3-32.6-30.5-34.9Z"/><path class="cls-5" d="M462,51.7l-8.4-14.6c-1.1-1.9-3-1.8-3.6-1.8-.7,0-2.4,.5-3,2.6l-2.3,8.6c-4.8,18-16.8,33.6-32.9,42.9l-16.2,9.4c9.1,15.7,15.1,32.7,17.8,50.7l26.6-15.3c28.8-16.7,38.8-53.7,22.1-82.5Z"/><path class="cls-5" d="M88.4,89.5c-16.4-9.4-28.1-24.7-32.9-42.9l-2.3-8.6c-.6-2.2-2.5-2.6-3-2.6-.6,0-2.5-.2-3.6,1.8l-8.4,14.6c-8.1,14-10.2,30.2-6,45.8,4.2,15.6,14.2,28.6,28.1,36.7l26.6,15.4c2.7-17.8,8.8-35.1,17.8-50.7l-16.2-9.4Z"/><path class="cls-3" d="M250,334.4h41c7.8,0,14.2-6.4,14.2-14.2v-4.4h-33.3s-20.5,0-20.5,0h-56.6v4.4c0,7.8,6.4,14.2,14.2,14.2h41Z"/><path class="cls-4" d="M392.6,215.8c-.1,1.2-.7,2.4-1.7,3.2-.9,.7-1.9,1.1-3,1.1s-.3,0-.4,0l-34.7-3c1.2,2.4,1.8,5.1,1.8,8v14.2c0,10.3-8.4,18.7-18.7,18.7h-14.2c-10.3,0-18.7-8.4-18.7-18.7v-14.2c0-6.2,3.1-11.8,7.8-15.2-12.7-6.7-21.7-19.2-23.5-34h-74.7c-1.8,14.8-10.8,27.3-23.5,34,4.7,3.4,7.8,8.9,7.8,15.2v14.2c0,10.3-8.4,18.7-18.7,18.7h-14.2c-10.3,0-18.7-8.4-18.7-18.7v-14.2c0-2.9,.7-5.6,1.8-8l-34.7,3c-.1,0-.3,0-.4,0-2.4,0-4.5-1.8-4.7-4.3-1.4-16.1,5.9-31,18.1-39.9h-30.9v55c0,41.6,33.8,75.4,75.4,75.4h20s0,0,0,0,0,0,0,0h0s0,0,0,0,0,0,0,0h21.1c-1.9-3-2.9-6.6-2.9-10.4v-.7c0-6,2.3-11.7,6.6-16l6.9-6.9c2-2,3.2-4.7,3.2-7.6v-73.5c0-2.6,2.1-4.7,4.7-4.7s4.7,2.1,4.7,4.7v73.5c0,5.4-2.1,10.5-5.9,14.3l-6.9,6.9c-2.5,2.5-3.8,5.8-3.8,9.3v.7c0,5.7,4.7,10.4,10.4,10.4h43.9c5.7,0,10.4-4.7,10.4-10.4v-.7c0-3.5-1.4-6.8-3.9-9.3l-6.9-6.9c-3.8-3.8-5.9-8.9-5.9-14.3v-73.5c0-2.6,2.1-4.7,4.7-4.7s4.7,2.1,4.7,4.7v73.5c0,2.9,1.1,5.6,3.2,7.6l6.9,7c4.3,4.3,6.6,9.9,6.6,16v.7c0,3.8-1.1,7.4-2.9,10.4h21.1s0,0,0,0,0,0,0,0h0s0,0,0,0,0,0,0,0h19.9c41.6,0,75.4-33.8,75.4-75.4v-55h-30.9c12.2,8.9,19.5,23.8,18.1,39.9Z"/><path class="cls-2" d="M330.1,315.7h-15.3s0,5.4,0,5.4c0,30.6-24.9,55.6-55.6,55.6h-18.4c-30.6,0-55.6-24.9-55.6-55.6v-5.4h-15.3c-32.8,0-61.2-18.7-75.4-46v40.9c0,41.6,16,80.6,45.2,109.9,29.2,29.3,68.1,45.5,109.5,45.5h1.4c41.5,0,80.4-16.2,109.5-45.5,29.1-29.3,45.2-68.3,45.2-109.9v-40.9c-14.1,27.3-42.6,46-75.4,46Z"/><path class="cls-7" d="M94.7,166.5h64.3l48.7-4.3c1.3-.1,2.5,.3,3.4,1.1,.9,.8,1.5,1.9,1.7,3.2h74.4c.1-1.2,.7-2.4,1.7-3.2,1-.8,2.2-1.2,3.4-1.1l48.7,4.3h64.3c-.1-3-.3-5.9-.6-8.9-2.1-20.8-8.7-40.3-19.8-57.9-5.5-8.7-11.9-16.8-19.1-24-25.5-25.5-59.4-39.6-95.5-39.6h-40.6c-36.1,0-70,14.1-95.5,39.6-7.2,7.2-13.6,15.3-19.1,24-11.1,17.7-17.7,37.2-19.8,57.9-.3,2.9-.5,5.9-.6,8.9Z"/><path class="cls-6" d="M351.2,176.8l-10.8-.9-43.9-3.8c.8,17.6,14.5,31.9,32.1,33.4l54.7,4.8c-.8-17.3-14.4-31.9-32.1-33.4Z"/><path class="cls-6" d="M203.5,172.1l-43.8,3.8s0,0,0,0l-10.9,.9c-17.8,1.6-31.3,16.1-32.1,33.4l54.7-4.8c17.7-1.5,31.3-15.8,32.1-33.4Z"/><path d="M414.9,186.7v-15.5c0-3.8-.2-7.7-.5-11.5l30.1-17.4c33.3-19.3,44.8-62,25.6-95.4l-8.4-14.6c-2.7-4.7-7.7-7.1-13-6.4-5.3,.7-9.5,4.4-10.9,9.6l-2.3,8.6c-4.2,15.6-14.6,29.1-28.6,37.2l-16.5,9.5c-5.3-7.9-11.3-15.2-17.9-21.8-27.3-27.3-63.6-42.3-102.2-42.3h-40.6c-38.6,0-74.9,15-102.2,42.3-6.7,6.6-12.7,14-17.9,21.8l-16.5-9.5c-14.2-8.2-24.3-21.4-28.6-37.2l-2.3-8.6c-1.4-5.2-5.6-8.9-10.9-9.5-5.3-.7-10.3,1.8-13,6.4l-8.4,14.6c-9.3,16.2-11.8,35-7,53,4.8,18,16.4,33.1,32.5,42.4l30.1,17.4c-.3,3.8-.5,7.7-.5,11.5v15.5c-22.4,2.4-40,21.4-40,44.4v20c0,23,17.5,42.1,40,44.4v15.2c0,44.1,17,85.5,47.9,116.6,31,31.1,72.2,48.3,116.2,48.3h1.4c44,0,85.3-17.2,116.2-48.3,30.9-31.1,47.9-72.5,47.9-116.6v-15.2c22.4-2.4,40-21.4,40-44.4v-20c0-23-17.5-42.1-40-44.4ZM85.2,230.9v29.7c-6.1-2-10.6-7.7-10.6-14.5v-10c0-6.8,4.4-12.5,10.6-14.5v9.3Zm0-19.1c-11.4,2.2-20,12.2-20,24.2v10c0,12,8.6,22,20,24.2v15.7c-17.2-2.3-30.5-17.1-30.5-34.9v-20c0-17.8,13.3-32.6,30.5-34.9v15.7Zm29.9-112.2c5.4-8.7,11.9-16.8,19.1-24,25.5-25.5,59.4-39.6,95.5-39.6h40.6c36.1,0,70,14.1,95.5,39.6,7.2,7.2,13.6,15.3,19.1,24,11.1,17.7,17.7,37.2,19.8,57.9,.3,2.9,.5,5.9,.6,8.9h-64.3l-48.7-4.3c-1.2-.1-2.5,.3-3.4,1.1-.9,.8-1.5,1.9-1.7,3.2h-74.4c-.1-1.2-.7-2.4-1.7-3.2-1-.8-2.2-1.2-3.4-1.1l-48.7,4.3H94.7c.1-3,.3-5.9,.6-8.9,2.1-20.8,8.7-40.3,19.8-57.9Zm213.5,105.8c-17.7-1.6-31.3-15.8-32.1-33.4l43.9,3.8,10.8,.9c17.7,1.6,31.3,16.1,32.1,33.4l-54.7-4.8Zm18.3,19.2c0,2.9-1.2,5.5-3.1,7.4-1.9,1.9-4.5,3.1-7.4,3.1s-5.5-1.2-7.4-3.1c-1.9-1.9-3.1-4.5-3.1-7.4,0-5.8,4.7-10.5,10.5-10.5s5.5,1.2,7.4,3.1c1.9,1.9,3.1,4.5,3.1,7.4Zm-175.5-19.2l-54.7,4.8c.8-17.3,14.4-31.9,32.1-33.4l10.9-.9s0,0,0,0l43.8-3.8c-.8,17.6-14.4,31.9-32.1,33.4Zm14.8,11.7c1.9,1.9,3.1,4.5,3.1,7.4s-1.2,5.5-3.1,7.4c-1.9,1.9-4.5,3.1-7.4,3.1s-5.5-1.2-7.4-3.1c-1.9-1.9-3.1-4.5-3.1-7.4,0-5.8,4.7-10.5,10.5-10.5s5.5,1.2,7.4,3.1ZM60.2,134.2c-14-8.1-24-21.1-28.1-36.7-4.2-15.6-2-31.9,6-45.8l8.4-14.6c1.1-1.9,3-1.8,3.6-1.8,.6,0,2.4,.5,3,2.6l2.3,8.6c4.9,18.3,16.6,33.5,32.9,42.9l16.2,9.4c-9,15.6-15.1,32.9-17.8,50.7l-26.6-15.4Zm345.2,176.5c0,41.6-16,80.6-45.2,109.9-29.2,29.3-68.1,45.5-109.5,45.5h-1.4c-41.5,0-80.4-16.2-109.5-45.5-29.1-29.3-45.2-68.3-45.2-109.9v-40.9c14.1,27.3,42.6,46,75.4,46h15.3v5.4c0,30.6,24.9,55.6,55.6,55.6h18.4c30.6,0,55.6-24.9,55.6-55.6v-5.4h15.3c32.8,0,61.3-18.7,75.4-46v40.9Zm-210.6,9.5v-4.4h33.3s20.5,0,20.5,0h56.6v4.4c0,7.8-6.4,14.2-14.2,14.2h-82c-7.8,0-14.2-6.4-14.2-14.2Zm210.6-89.2c0,41.6-33.8,75.4-75.4,75.4h-19.9s0,0,0,0,0,0,0,0h0s0,0,0,0,0,0,0,0h-21.1c1.9-3,2.9-6.6,2.9-10.4v-.7c0-6-2.3-11.7-6.6-16l-6.9-7c-2-2-3.2-4.7-3.2-7.6v-73.5c0-2.6-2.1-4.7-4.7-4.7s-4.7,2.1-4.7,4.7v73.5c0,5.4,2.1,10.5,5.9,14.3l6.9,6.9c2.5,2.5,3.9,5.8,3.9,9.3v.7c0,5.7-4.7,10.4-10.4,10.4h-43.9c-5.7,0-10.4-4.7-10.4-10.4v-.7c0-3.5,1.4-6.8,3.8-9.3l6.9-6.9c3.8-3.8,5.9-8.9,5.9-14.3v-73.5c0-2.6-2.1-4.7-4.7-4.7s-4.7,2.1-4.7,4.7v73.5c0,2.9-1.1,5.6-3.2,7.6l-6.9,6.9c-4.3,4.3-6.6,9.9-6.6,16v.7c0,3.8,1.1,7.4,2.9,10.4h-21.1s0,0,0,0,0,0,0,0h0s0,0,0,0,0,0,0,0h-20c-41.5,0-75.4-33.8-75.4-75.4v-55h30.9c-12.2,8.9-19.5,23.8-18.1,39.9,.2,2.5,2.3,4.3,4.7,4.3s.3,0,.4,0l34.7-3c-1.2,2.4-1.8,5.1-1.8,8v14.2c0,10.3,8.4,18.7,18.7,18.7h14.2c10.3,0,18.7-8.4,18.7-18.7v-14.2c0-6.2-3.1-11.8-7.8-15.2,12.7-6.7,21.7-19.2,23.5-34h74.7c1.8,14.8,10.8,27.3,23.5,34-4.7,3.4-7.8,8.9-7.8,15.2v14.2c0,10.3,8.4,18.7,18.7,18.7h14.2c10.3,0,18.7-8.4,18.7-18.7v-14.2c0-2.9-.7-5.6-1.8-8l34.7,3c.1,0,.3,0,.4,0,1.1,0,2.2-.4,3-1.1,1-.8,1.6-2,1.7-3.2,1.4-16.1-6-31-18.1-39.9h30.9v55Zm-10-132.1l16.2-9.4c16.1-9.3,28.1-25,32.9-42.9l2.3-8.6c.6-2.1,2.3-2.5,3-2.6,.6,0,2.5-.2,3.6,1.8l8.4,14.6c16.7,28.8,6.7,65.9-22.1,82.5l-26.6,15.3c-2.7-18-8.6-34.9-17.8-50.7Zm19.4,132.1v-9.3c6.1,2,10.6,7.7,10.6,14.5v10c0,6.8-4.4,12.5-10.6,14.5v-29.7Zm30.5,20.1c0,17.8-13.3,32.6-30.5,34.9v-15.7c11.4-2.2,20-12.2,20-24.2v-10c0-12-8.6-22-20-24.2v-15.7c17.2,2.3,30.5,17.1,30.5,34.9v20Z"/><path class="cls-3" d="M325.8,224.7c0,2.9,1.2,5.5,3.1,7.4,1.9,1.9,4.5,3.1,7.4,3.1s5.5-1.2,7.4-3.1c1.9-1.9,3.1-4.5,3.1-7.4s-1.2-5.5-3.1-7.4c-1.9-1.9-4.5-3.1-7.4-3.1-5.8,0-10.5,4.7-10.5,10.5Z"/><path class="cls-3" d="M168.2,224.7c0,2.9,1.2,5.5,3.1,7.4,1.9,1.9,4.5,3.1,7.4,3.1s5.5-1.2,7.4-3.1c1.9-1.9,3.1-4.5,3.1-7.4s-1.2-5.5-3.1-7.4c-1.9-1.9-4.5-3.1-7.4-3.1-5.8,0-10.5,4.7-10.5,10.5Z"/></svg>